<svg width="110" height="46" viewBox="0 0 110 46" fill="none" xmlns="http://www.w3.org/2000/svg">
<path d="M25.0697 45.25C25.0697 45.25 9.15393 45.4076 4.38222 38.25C-1.61778 29.25 -1.61778 14.25 5.38222 7.25C12.3822 0.249997 24.8822 0.75 24.8822 0.75C25.0489 0.75 25.2572 0.718748 25.3822 1.03257V10.75C25.3822 10.75 25.4239 11.25 25.2572 11.25H11.8822V18.4375H25.0072C25.1739 18.4375 25.2572 18.5208 25.2572 18.6875L25.3197 25.9375C25.3197 26.1042 25.2364 26.1875 25.0697 26.1875H11.8822C11.8822 26.1875 11.8132 35.1496 11.8822 35.25C11.9512 35.3504 25.0697 35.25 25.0697 35.25C25.2364 35.25 25.3822 35.5417 25.3822 35.75L25.3197 45C25.3197 45.1667 25.2364 45.25 25.0697 45.25Z" fill="url(#paint0_linear_117_2)"/>
<path d="M38.5072 45.25H31.2572C31.0906 45.25 31.0072 45.1458 31.0072 44.9375L31.1322 0.968748C31.1322 0.802081 31.2156 0.718748 31.3822 0.718748H39.1947C39.3614 0.718748 39.5072 0.802081 39.6322 0.968748L45.476 9.40625L51.2885 0.968748C51.4135 0.802081 51.5697 0.718748 51.7572 0.718748H59.601C59.7885 0.718748 59.8822 0.802081 59.8822 0.968748L60.0072 44.9375C60.0072 45.1458 59.9239 45.25 59.7572 45.25H52.5072C52.3406 45.25 52.2572 45.1458 52.2572 44.9375L52.1947 12.2812L45.476 22.0312L38.8197 12.2812L38.7572 44.9375C38.7572 45.1458 38.6739 45.25 38.5072 45.25Z" fill="url(#paint1_linear_117_2)"/>
<path d="M77.1635 45.875C74.851 45.875 72.7364 45.2917 70.8197 44.125C68.9239 42.9583 67.4135 41.3958 66.2885 39.4375C65.1843 37.4583 64.6322 35.2604 64.6322 32.8437L64.6947 12.875C64.6947 10.5 65.2364 8.35416 66.3197 6.4375C67.403 4.5 68.8926 2.94791 70.7885 1.78125C72.7051 0.593748 74.8301 0 77.1635 0C79.5385 0 81.6531 0.572915 83.5072 1.71875C85.3822 2.86458 86.8718 4.41666 87.976 6.375C89.101 8.3125 89.6635 10.4792 89.6635 12.875V15.8125C89.6635 15.9792 89.5801 16.0625 89.4135 16.0625H82.226C82.0593 16.0625 81.976 15.9792 81.976 15.8125V12.875C81.976 11.4583 81.5176 10.2396 80.601 9.21875C79.6843 8.19792 78.5385 7.6875 77.1635 7.6875C75.6426 7.6875 74.476 8.20833 73.6635 9.25C72.851 10.2917 72.4447 11.5 72.4447 12.875V32.8437C72.4447 34.4062 72.9031 35.6875 73.8197 36.6875C74.7364 37.6667 75.851 38.1562 77.1635 38.1562C78.5385 38.1562 79.6843 37.6146 80.601 36.5312C81.5176 35.4271 81.976 34.1979 81.976 32.8437V29.875C81.976 29.7083 82.0593 29.625 82.226 29.625H89.476C89.6426 29.625 89.726 29.7083 89.726 29.875V32.8437C89.726 35.2396 89.1635 37.4271 88.0385 39.4062C86.8926 41.3646 85.3822 42.9375 83.5072 44.125C81.6322 45.2917 79.5176 45.875 77.1635 45.875Z" fill="url(#paint2_linear_117_2)"/>
<path d="M97.7443 40.25C97.7443 42.25 93.3822 43.25 91.3697 43.25C91.3697 42.75 91.3697 43.4988 91.3697 43.25V26.1222C91.3697 26.1222 81.976 26.1222 81.2572 26.1222C80.3822 25.75 80.3822 19.75 81.2572 19.2565C81.8822 19.25 91.3697 19.2565 91.3697 19.2565V12.2976V5.33862C91.3697 5.23911 91.3822 1.25 91.3822 1.25C93.3822 1.25 97.7443 3.25 97.7443 5.33862C97.7443 5.23911 97.9445 5.33862 97.7443 5.33862V19.2565C97.7443 19.2565 106.465 19.2631 107.923 19.2565C109.382 19.25 109.382 26.1222 107.923 26.1222H97.7443V40.25Z" fill="url(#paint3_linear_117_2)"/>
<path d="M97.7443 40.25C97.7443 42.25 93.3822 43.25 91.3697 43.25C91.3697 42.75 91.3697 43.4988 91.3697 43.25V26.1222C91.3697 26.1222 81.976 26.1222 81.2572 26.1222C80.3822 25.75 80.3822 19.75 81.2572 19.2565C81.8822 19.25 91.3697 19.2565 91.3697 19.2565V12.2976V5.33862C91.3697 5.23911 91.3822 1.25 91.3822 1.25C93.3822 1.25 97.7443 3.25 97.7443 5.33862C97.7443 5.23911 97.9445 5.33862 97.7443 5.33862V19.2565C97.7443 19.2565 106.465 19.2631 107.923 19.2565C109.382 19.25 109.382 26.1222 107.923 26.1222H97.7443V40.25Z" fill="url(#paint4_linear_117_2)"/>
<defs>
<linearGradient id="paint0_linear_117_2" x1="53.7871" y1="0" x2="53.7871" y2="45.875" gradientUnits="userSpaceOnUse">
<stop stop-color="#D9D9D9"/>
<stop offset="1" stop-color="#737373"/>
</linearGradient>
<linearGradient id="paint1_linear_117_2" x1="53.7871" y1="0" x2="53.7871" y2="45.875" gradientUnits="userSpaceOnUse">
<stop stop-color="#D9D9D9"/>
<stop offset="1" stop-color="#737373"/>
</linearGradient>
<linearGradient id="paint2_linear_117_2" x1="53.7871" y1="0" x2="53.7871" y2="45.875" gradientUnits="userSpaceOnUse">
<stop stop-color="#D9D9D9"/>
<stop offset="1" stop-color="#737373"/>
</linearGradient>
<linearGradient id="paint3_linear_117_2" x1="54.5088" y1="0" x2="54.5088" y2="45.875" gradientUnits="userSpaceOnUse">
<stop offset="0.644231" stop-color="#FFC400"/>
<stop offset="1" stop-color="#997500"/>
</linearGradient>
<linearGradient id="paint4_linear_117_2" x1="54.5088" y1="0" x2="54.5088" y2="45.875" gradientUnits="userSpaceOnUse">
<stop offset="0.644231" stop-color="#FFC400"/>
<stop offset="1" stop-color="#997500"/>
</linearGradient>
</defs>
</svg>
